<svg width="25" height="24" viewBox="0 0 25 24" fill="none" xmlns="http://www.w3.org/2000/svg">
<path d="M12.1333 5.76825C8.69946 5.76825 5.90585 8.5638 5.90585 12C5.90585 15.4362 8.69946 18.2293 12.1333 18.2293C15.5671 18.2293 18.3583 15.4338 18.3583 12C18.3607 8.5638 15.5671 5.76825 12.1333 5.76825ZM12.1333 15.8536C10.009 15.8536 8.28235 14.1258 8.28235 12C8.28235 9.87422 10.009 8.14641 12.1333 8.14641C14.2576 8.14641 15.9842 9.87422 15.9842 12C15.9842 14.1258 14.2576 15.8536 12.1333 15.8536ZM17.2234 0H7.04317C3.23834 0 0.141602 3.09889 0.141602 6.90637V17.0936C0.141602 20.9011 3.23834 24 7.04317 24H17.2234C21.0282 24 24.1249 20.9011 24.1249 17.0936V6.90637C24.1249 3.09889 21.0306 0 17.2234 0ZM21.7508 17.0936C21.7508 19.5907 19.7187 21.6218 17.2234 21.6218H7.04317C4.54784 21.6218 2.51811 19.5907 2.51811 17.0936V6.90637C2.51811 4.4093 4.54784 2.37816 7.04317 2.37816H17.2234C19.7187 2.37816 21.7484 4.4093 21.7484 6.90637V17.0936H21.7508ZM18.4456 3.96764C17.5483 3.96764 16.816 4.69808 16.816 5.59838C16.816 6.49626 17.5459 7.22912 18.4456 7.22912C19.3428 7.22912 20.0752 6.49869 20.0752 5.59838C20.0752 4.69808 19.3428 3.96764 18.4456 3.96764Z" fill="#1B1A1A"/>
</svg>
