<svg width="25" height="20" viewBox="0 0 25 20" fill="none" xmlns="http://www.w3.org/2000/svg">
<path d="M24.1555 2.55654C23.273 2.94873 22.3247 3.21203 21.3299 3.3327C22.3466 2.72384 23.125 1.75844 23.4922 0.609283C22.5412 1.17426 21.4861 1.58291 20.3679 1.80506C19.4717 0.84789 18.1918 0.25 16.7776 0.25C14.0589 0.25 11.8555 2.45232 11.8555 5.173C11.8555 5.5597 11.8993 5.93544 11.9815 6.29473C7.8925 6.08903 4.26663 4.1308 1.84117 1.14958C1.41911 1.87637 1.17519 2.72384 1.17519 3.62616C1.17519 5.33481 2.04398 6.84051 3.36222 7.72363C2.55647 7.69894 1.79732 7.47679 1.13408 7.10654V7.16962C1.13408 9.5557 2.83054 11.5441 5.0806 11.9966C4.66951 12.1091 4.23375 12.1694 3.78428 12.1694C3.46637 12.1694 3.15942 12.1392 2.86069 12.0816C3.48555 14.0371 5.3026 15.4605 7.454 15.5017C5.77124 16.8209 3.65273 17.608 1.34511 17.608C0.94772 17.608 0.558549 17.5861 0.172119 17.5395C2.35093 18.9354 4.93535 19.75 7.71436 19.75C16.7639 19.75 21.7135 12.2489 21.7135 5.74346C21.7135 5.52954 21.7081 5.31835 21.6998 5.10717C22.6618 4.41055 23.4977 3.54388 24.1555 2.55654Z" fill="#1B1A1A"/>
</svg>
